<mxfile host="drawio-plugin" modified="2021-10-18T20:12:50.355Z" agent="5.0 (X11; Linux x86_64) AppleWebKit/537.36 (KHTML, like Gecko) Chrome/87.0.4280.141 Safari/537.36" etag="2UBKfdhKcWQBg-D5qHA6" version="14.7.4" type="embed"><diagram id="KHR4jg7i1LV9nzJbRJ5C" name="test"><mxGraphModel dx="1409" dy="720" grid="1" gridSize="10" guides="1" tooltips="1" connect="1" arrows="1" fold="1" page="1" pageScale="1" pageWidth="850" pageHeight="1100" math="0" shadow="0"><root><mxCell id="0"/><mxCell id="1" parent="0"/><mxCell id="2" style="edgeStyle=orthogonalEdgeStyle;rounded=0;orthogonalLoop=1;jettySize=auto;html=1;" parent="1" source="3" target="13" edge="1"><mxGeometry relative="1" as="geometry"/></mxCell><mxCell id="3" value="mysql&lt;br&gt;workbench" style="rounded=0;whiteSpace=wrap;html=1;fillColor=#ffcccc;strokeColor=#36393d;" parent="1" vertex="1"><mxGeometry x="400" y="560" width="80" height="40" as="geometry"/></mxCell><mxCell id="4" value="HTML" style="rounded=0;whiteSpace=wrap;html=1;fillColor=#dae8fc;strokeColor=#6c8ebf;" parent="1" vertex="1"><mxGeometry x="120" y="560" width="80" height="40" as="geometry"/></mxCell><mxCell id="5" value="CSS" style="rounded=0;whiteSpace=wrap;html=1;fillColor=#dae8fc;strokeColor=#6c8ebf;" parent="1" vertex="1"><mxGeometry x="120" y="640" width="80" height="40" as="geometry"/></mxCell><mxCell id="6" value="hibernate" style="rounded=0;whiteSpace=wrap;html=1;fillColor=#ffe6cc;strokeColor=#d79b00;" parent="1" vertex="1"><mxGeometry x="120" y="200" width="80" height="40" as="geometry"/></mxCell><mxCell id="7" value="spring" style="rounded=0;whiteSpace=wrap;html=1;fillColor=#d5e8d4;strokeColor=#82b366;" parent="1" vertex="1"><mxGeometry x="120" y="160" width="80" height="40" as="geometry"/></mxCell><mxCell id="8" value="dependency injection framework" style="rounded=0;whiteSpace=wrap;html=1;fillColor=#f5f5f5;strokeColor=#666666;fontColor=#333333;" parent="1" vertex="1"><mxGeometry x="200" y="160" width="120" height="40" as="geometry"/></mxCell><mxCell id="9" value="orm framework" style="rounded=0;whiteSpace=wrap;html=1;fillColor=#f5f5f5;strokeColor=#666666;fontColor=#333333;" parent="1" vertex="1"><mxGeometry x="200" y="200" width="120" height="40" as="geometry"/></mxCell><mxCell id="10" value="markup language" style="rounded=0;whiteSpace=wrap;html=1;fillColor=#f5f5f5;strokeColor=#666666;fontColor=#333333;" parent="1" vertex="1"><mxGeometry x="200" y="560" width="120" height="40" as="geometry"/></mxCell><mxCell id="11" value="styling language" style="rounded=0;whiteSpace=wrap;html=1;fillColor=#f5f5f5;strokeColor=#666666;fontColor=#333333;" parent="1" vertex="1"><mxGeometry x="200" y="640" width="120" height="40" as="geometry"/></mxCell><mxCell id="12" value="db interface" style="rounded=0;whiteSpace=wrap;html=1;fillColor=#f5f5f5;strokeColor=#666666;fontColor=#333333;" parent="1" vertex="1"><mxGeometry x="480" y="560" width="120" height="40" as="geometry"/></mxCell><mxCell id="13" value="mysql" style="shape=cylinder3;whiteSpace=wrap;html=1;boundedLbl=1;backgroundOutline=1;size=15;fillColor=#ffcccc;strokeColor=#36393d;" parent="1" vertex="1"><mxGeometry x="410" y="630" width="60" height="70" as="geometry"/></mxCell><mxCell id="14" value="SQL" style="rounded=0;whiteSpace=wrap;html=1;fillColor=#ffe6cc;strokeColor=#d79b00;" parent="1" vertex="1"><mxGeometry x="120" y="240" width="80" height="40" as="geometry"/></mxCell><mxCell id="15" style="edgeStyle=orthogonalEdgeStyle;rounded=0;orthogonalLoop=1;jettySize=auto;html=1;entryX=0.01;entryY=0.422;entryDx=0;entryDy=0;entryPerimeter=0;exitX=1;exitY=0.5;exitDx=0;exitDy=0;" parent="1" source="9" target="13" edge="1"><mxGeometry relative="1" as="geometry"/></mxCell><mxCell id="16" value="database language" style="rounded=0;whiteSpace=wrap;html=1;fillColor=#f5f5f5;strokeColor=#666666;fontColor=#333333;" parent="1" vertex="1"><mxGeometry x="200" y="240" width="120" height="40" as="geometry"/></mxCell><mxCell id="17" value="database" style="rounded=0;whiteSpace=wrap;html=1;fillColor=#f5f5f5;strokeColor=#666666;fontColor=#333333;" parent="1" vertex="1"><mxGeometry x="480" y="660" width="120" height="40" as="geometry"/></mxCell><mxCell id="18" value="junit 5" style="rounded=0;whiteSpace=wrap;html=1;fillColor=#d5e8d4;strokeColor=#82b366;" parent="1" vertex="1"><mxGeometry x="120" y="360" width="80" height="40" as="geometry"/></mxCell><mxCell id="19" value="testing framework" style="rounded=0;whiteSpace=wrap;html=1;fillColor=#f5f5f5;strokeColor=#666666;fontColor=#333333;" parent="1" vertex="1"><mxGeometry x="200" y="360" width="120" height="40" as="geometry"/></mxCell><mxCell id="20" value="app" style="rounded=0;whiteSpace=wrap;html=1;fontStyle=1;fillColor=#ffff88;strokeColor=#36393d;" parent="1" vertex="1"><mxGeometry x="40" y="40" width="80" height="40" as="geometry"/></mxCell><mxCell id="21" value="software" style="rounded=0;whiteSpace=wrap;html=1;fillColor=#ffff88;strokeColor=#36393d;fontStyle=1" parent="1" vertex="1"><mxGeometry x="400" y="40" width="80" height="40" as="geometry"/></mxCell><mxCell id="22" value="java" style="rounded=0;whiteSpace=wrap;html=1;fillColor=#d5e8d4;strokeColor=#82b366;" parent="1" vertex="1"><mxGeometry x="120" y="120" width="80" height="40" as="geometry"/></mxCell><mxCell id="23" value="programming language" style="rounded=0;whiteSpace=wrap;html=1;fillColor=#f5f5f5;strokeColor=#666666;fontColor=#333333;" parent="1" vertex="1"><mxGeometry x="200" y="120" width="120" height="40" as="geometry"/></mxCell><mxCell id="24" value="java sdk" style="rounded=0;whiteSpace=wrap;html=1;fillColor=#ffcccc;strokeColor=#36393d;" parent="1" vertex="1"><mxGeometry x="400" y="320" width="80" height="40" as="geometry"/></mxCell><mxCell id="25" value="development kit" style="rounded=0;whiteSpace=wrap;html=1;fillColor=#f5f5f5;strokeColor=#666666;fontColor=#333333;" parent="1" vertex="1"><mxGeometry x="480" y="320" width="120" height="40" as="geometry"/></mxCell><mxCell id="26" value="java jre" style="rounded=0;whiteSpace=wrap;html=1;fillColor=#d5e8d4;strokeColor=#82b366;" parent="1" vertex="1"><mxGeometry x="440" y="360" width="80" height="40" as="geometry"/></mxCell><mxCell id="27" value="runtime environment" style="rounded=0;whiteSpace=wrap;html=1;fillColor=#f5f5f5;strokeColor=#666666;fontColor=#333333;" parent="1" vertex="1"><mxGeometry x="520" y="360" width="120" height="40" as="geometry"/></mxCell><mxCell id="28" value="jvm" style="rounded=0;whiteSpace=wrap;html=1;fillColor=#d5e8d4;strokeColor=#82b366;" parent="1" vertex="1"><mxGeometry x="480" y="400" width="80" height="40" as="geometry"/></mxCell><mxCell id="29" value="java virtual machine" style="rounded=0;whiteSpace=wrap;html=1;fillColor=#f5f5f5;strokeColor=#666666;fontColor=#333333;" parent="1" vertex="1"><mxGeometry x="560" y="400" width="120" height="40" as="geometry"/></mxCell><mxCell id="30" value="compiler" style="rounded=0;whiteSpace=wrap;html=1;fillColor=#d5e8d4;strokeColor=#82b366;" parent="1" vertex="1"><mxGeometry x="440" y="440" width="80" height="40" as="geometry"/></mxCell><mxCell id="31" value="debugger" style="rounded=0;whiteSpace=wrap;html=1;fillColor=#d5e8d4;strokeColor=#82b366;" parent="1" vertex="1"><mxGeometry x="440" y="480" width="80" height="40" as="geometry"/></mxCell><mxCell id="32" value="intellij" style="rounded=0;whiteSpace=wrap;html=1;fillColor=#ffcccc;strokeColor=#36393d;" parent="1" vertex="1"><mxGeometry x="400" y="120" width="80" height="40" as="geometry"/></mxCell><mxCell id="33" value="code editor" style="rounded=0;whiteSpace=wrap;html=1;fillColor=#f5f5f5;strokeColor=#666666;fontColor=#333333;" parent="1" vertex="1"><mxGeometry x="480" y="120" width="120" height="40" as="geometry"/></mxCell><mxCell id="34" value="git" style="rounded=0;whiteSpace=wrap;html=1;fillColor=#ffcccc;strokeColor=#36393d;" parent="1" vertex="1"><mxGeometry x="400" y="200" width="80" height="40" as="geometry"/></mxCell><mxCell id="35" value="versioning system" style="rounded=0;whiteSpace=wrap;html=1;fillColor=#f5f5f5;strokeColor=#666666;fontColor=#333333;" parent="1" vertex="1"><mxGeometry x="480" y="200" width="120" height="40" as="geometry"/></mxCell><mxCell id="36" value="spring security" style="rounded=0;whiteSpace=wrap;html=1;fillColor=#d5e8d4;strokeColor=#82b366;" parent="1" vertex="1"><mxGeometry x="120" y="280" width="80" height="40" as="geometry"/></mxCell><mxCell id="37" value="security framework" style="rounded=0;whiteSpace=wrap;html=1;fillColor=#f5f5f5;strokeColor=#666666;fontColor=#333333;" parent="1" vertex="1"><mxGeometry x="200" y="280" width="120" height="40" as="geometry"/></mxCell><mxCell id="38" value="spring web" style="rounded=0;whiteSpace=wrap;html=1;fillColor=#d5e8d4;strokeColor=#82b366;" parent="1" vertex="1"><mxGeometry x="120" y="320" width="80" height="40" as="geometry"/></mxCell><mxCell id="39" value="web framework" style="rounded=0;whiteSpace=wrap;html=1;fillColor=#f5f5f5;strokeColor=#666666;fontColor=#333333;" parent="1" vertex="1"><mxGeometry x="200" y="320" width="120" height="40" as="geometry"/></mxCell><mxCell id="40" value="thymeleaf" style="rounded=0;whiteSpace=wrap;html=1;fillColor=#d5e8d4;strokeColor=#82b366;" parent="1" vertex="1"><mxGeometry x="120" y="520" width="80" height="40" as="geometry"/></mxCell><mxCell id="41" value="templating engine" style="rounded=0;whiteSpace=wrap;html=1;fillColor=#f5f5f5;strokeColor=#666666;fontColor=#333333;" parent="1" vertex="1"><mxGeometry x="200" y="520" width="120" height="40" as="geometry"/></mxCell><mxCell id="42" value="JS" style="rounded=0;whiteSpace=wrap;html=1;fillColor=#dae8fc;strokeColor=#6c8ebf;" parent="1" vertex="1"><mxGeometry x="120" y="680" width="80" height="40" as="geometry"/></mxCell><mxCell id="43" value="web language" style="rounded=0;whiteSpace=wrap;html=1;fillColor=#f5f5f5;strokeColor=#666666;fontColor=#333333;" parent="1" vertex="1"><mxGeometry x="200" y="680" width="120" height="40" as="geometry"/></mxCell><mxCell id="44" value="bootstrap" style="rounded=0;whiteSpace=wrap;html=1;fillColor=#dae8fc;strokeColor=#6c8ebf;" parent="1" vertex="1"><mxGeometry x="120" y="600" width="80" height="40" as="geometry"/></mxCell><mxCell id="45" value="css framework" style="rounded=0;whiteSpace=wrap;html=1;fillColor=#f5f5f5;strokeColor=#666666;fontColor=#333333;" parent="1" vertex="1"><mxGeometry x="200" y="600" width="120" height="40" as="geometry"/></mxCell><mxCell id="46" value="github" style="rounded=0;whiteSpace=wrap;html=1;fillColor=#ffcccc;strokeColor=#36393d;" vertex="1" parent="1"><mxGeometry x="400" y="240" width="80" height="40" as="geometry"/></mxCell><mxCell id="47" value="code repository" style="rounded=0;whiteSpace=wrap;html=1;fillColor=#f5f5f5;strokeColor=#666666;fontColor=#333333;" vertex="1" parent="1"><mxGeometry x="480" y="240" width="120" height="40" as="geometry"/></mxCell><mxCell id="48" value="backend" style="rounded=0;whiteSpace=wrap;html=1;fillColor=#d5e8d4;strokeColor=#82b366;gradientColor=#97d077;" vertex="1" parent="1"><mxGeometry x="40" y="120" width="80" height="40" as="geometry"/></mxCell><mxCell id="49" value="frontend" style="rounded=0;whiteSpace=wrap;html=1;fillColor=#dae8fc;strokeColor=#6c8ebf;gradientColor=#7ea6e0;" vertex="1" parent="1"><mxGeometry x="40" y="520" width="80" height="40" as="geometry"/></mxCell><mxCell id="54" value="maven" style="rounded=0;whiteSpace=wrap;html=1;fillColor=#d5e8d4;strokeColor=#82b366;" vertex="1" parent="1"><mxGeometry x="120" y="400" width="80" height="40" as="geometry"/></mxCell><mxCell id="55" value="build tool" style="rounded=0;whiteSpace=wrap;html=1;fillColor=#f5f5f5;strokeColor=#666666;fontColor=#333333;" vertex="1" parent="1"><mxGeometry x="200" y="400" width="120" height="40" as="geometry"/></mxCell></root></mxGraphModel></diagram></mxfile>